<?xml version="1.0" standalone="no"?><!DOCTYPE svg PUBLIC "-//W3C//DTD SVG 1.1//EN" "http://www.w3.org/Graphics/SVG/1.1/DTD/svg11.dtd"><svg t="1529842185411" class="icon" style="" viewBox="0 0 1024 1024" version="1.1" xmlns="http://www.w3.org/2000/svg" p-id="7525" xmlns:xlink="http://www.w3.org/1999/xlink" width="200" height="200"><defs><style type="text/css"></style></defs><path d="M865.770767 664.591327m-50.157353 0a50.157353 50.157353 0 1 0 100.314707 0 50.157353 50.157353 0 1 0-100.314707 0Z" p-id="7526"></path><path d="M578.137815 952.71649l-0.492211-0.49221c-13.4575-13.4575-13.4575-35.276435 0-48.733934l192.543248-192.543248c13.4575-13.4575 35.276435-13.4575 48.733934 0l0.492211 0.49221c13.4575 13.4575 13.4575 35.276435 0 48.734958L626.871749 952.71649c-13.4575 13.4575-35.276435 13.4575-48.733934 0z" p-id="7527"></path><path d="M704.982758 64.627926H212.49516c-57.580416 0-104.425328 46.844911-104.425327 104.425328v685.550685c0 57.580416 46.844911 104.425328 104.425327 104.425327l250.346745-0.016373L809.142026 612.712773l0.266059-443.659519c0-57.579393-46.844911-104.425328-104.425327-104.425328z m-43.220361 638.062114c0 19.032472-15.428388 34.46086-34.460859 34.46086H290.175357c-19.032472 0-34.46086-15.428388-34.460859-34.46086v-0.695848c0-19.032472 15.428388-34.46086 34.460859-34.46086h337.126181c19.032472 0 34.46086 15.428388 34.460859 34.46086v0.695848z m0-155.533332c0 19.032472-15.428388 34.46086-34.460859 34.460859H290.175357c-19.032472 0-34.46086-15.428388-34.460859-34.460859v-0.695848c0-19.032472 15.428388-34.46086 34.460859-34.46086h337.126181c19.032472 0 34.46086 15.428388 34.460859 34.46086v0.695848z m-173.962054-152.472624c0 19.032472-15.428388 34.46086-34.460859 34.46086H290.17638c-19.032472 0-34.46086-15.428388-34.460859-34.46086v-0.695848c0-19.032472 15.428388-34.46086 34.460859-34.46086h163.164127c19.032472 0 34.46086 15.428388 34.46086 34.46086v0.695848z m124.383892-98.272187h-34.808784V64.644299h34.808784v196.958814H809.142026v34.808784H612.184235z" p-id="7528"></path></svg>