<?xml version="1.0" standalone="no"?><!DOCTYPE svg PUBLIC "-//W3C//DTD SVG 1.1//EN" "http://www.w3.org/Graphics/SVG/1.1/DTD/svg11.dtd"><svg t="1529842391197" class="icon" style="" viewBox="0 0 1024 1024" version="1.1" xmlns="http://www.w3.org/2000/svg" p-id="8218" xmlns:xlink="http://www.w3.org/1999/xlink" width="200" height="200"><defs><style type="text/css"></style></defs><path d="M686.572102 407.287875c-5.641049-2.27442-16.18244-0.876929-23.357203-0.875712H326.301482c-4.516002 1.869403-7.852223 2.298746-10.510984 5.8393-7.763436 10.335842-3.176891 28.683238 8.758343 31.239833h339.833675c7.767085 0 19.21946 1.348841 24.231699-1.751425 4.786013-2.960395 7.130977-8.710908 8.175751-15.473356 1.341543-8.695097-4.73493-16.767465-10.217864-18.97864z m-322.025086-98.389965c11.937666-5.066971 21.828354-14.236412 28.903383-24.232916 8.419004-11.895097 12.632155-26.121779 15.473356-43.794146 2.269555-14.111136-2.133333-26.13759-13.138122-28.027671-3.049183-0.524211-5.630103 0.80152-7.298822 1.751426-11.1252 6.333105-7.060433 14.67062-10.217864 28.319574-3.657317 15.80783-18.139415 37.900114-40.581984 32.991258-15.068339-3.294869-24.704827-15.581604-28.903383-29.780311-4.388293-14.842113 0.79179-33.004637-18.10171-33.283163-3.494337 1.565336-6.554466 1.946028-8.758343 4.670468-11.042493 13.655036-1.516686 42.435576 4.086659 55.180844 10.731129 24.40076 42.440441 51.521095 78.53683 36.204637zM687.154694 505.384721c-5.419688-2.469023-16.027974-1.167617-23.355986-1.167617H326.590954c-4.271532 1.757507-7.652756 1.967921-10.217864 5.255492-7.936146 10.172862-4.635196 28.274572 7.590726 31.530521l282.610718 0.291904h57.222957c7.525048 0.001216 19.090536 1.454656 24.232916-1.459521 5.113189-2.898366 7.668567-8.478601 8.758343-15.473356 1.31965-8.461574-4.488027-16.632459-9.634056-18.977423z m140.13835 132.550057V413.41908v-110.652375c0-20.025846 1.914405-42.55477-1.459521-60.43512-6.038769-31.987837-14.244926-57.675409-29.779095-79.704447-21.493881-30.478449-53.118054-56.935918-105.687571-56.05534 0.673812-45.743824-50.767009-44.515393-49.924136 0H368.049867c0.667731-44.924059-50.49943-45.427594-49.632231 0-82.902014-0.214063-122.231243 64.353934-135.466667 134.884074-2.410642 12.847434-1.461954 28.250247-1.460737 42.918434v413.412999c0 25.415127-2.122387 54.196883 2.335234 76.201597 12.302547 60.724591 42.467199 107.842797 98.096845 124.956898 20.824933 6.408514 52.158419 4.089092 78.827518 4.087875h145.392626l200.572254-0.291904c69.91106-11.819688 103.79141-60.150513 117.949981-127.585253 3.415279-16.270011 2.629571-35.885975 2.627138-55.179627l0.001216-82.042113z m-51.383656 125.833827c-7.1626 32.640973-21.945116 55.1626-47.003877 69.778487-15.115773 8.816724-38.351349 7.883846-62.770353 7.882631H306.449563c-44.296465-7.321931-65.824401-38.250399-74.155834-81.457089-2.078601-10.777347-1.168833-23.923983-1.167617-36.203421v-64.231091-276.777499-77.077309c0-32.75287-0.304067-63.075637 9.342151-85.251843 12.702699-29.202585 35.369061-52.793311 77.951805-52.260585v41.750817c-0.002433 26.558419-0.08149 48.053516 21.895249 52.260585 9.37499 1.793995 16.333257-4.250855 19.853136-8.759559 3.247434-4.158419 5.80038-8.539415 7.298822-14.597643 1.57385-6.367161 0.583808-15.436868 0.583808-22.773395v-47.882022h272.392855v48.173927c-0.001216 8.330217-0.841657 18.167389 1.167617 24.816723 1.650475 5.462258 4.596275 10.140023 8.174534 13.721931 3.738807 3.742455 9.987989 8.90916 18.685519 7.298822 22.078905-4.085443 21.898898-26.3103 21.896465-52.844394v-41.167009c53.948765-0.190954 77.422729 36.050171 86.127556 81.165185 1.959407 10.161916 1.168833 22.505815 1.167617 34.158875V712.088179c-0.002433 17.298974 1.491144 36.893044-1.753858 51.680426zM324.548841 639.102395l282.02691 0.291904h55.178411c7.57978 0.001216 18.799848 1.522767 24.816724-0.875713 5.960927-2.376587 9.066059-8.506575 10.217864-15.766477 1.413303-8.912809-4.620601-17.024097-10.217864-19.269327-5.684835-2.279285-16.160547-0.876929-23.357203-0.875712H327.175979c-5.706727 2.217256-9.241201 2.36564-12.26241 7.006917-7.126112 10.946408-1.425466 26.937894 9.635272 29.488408z m393.553782-426.259218c-3.54542-0.612999-6.334322 1.112885-8.174535 2.335234-8.878753 5.896465-6.070391 15.936754-9.050247 28.02767-3.939491 15.986621-18.988369 37.968225-41.749601 32.40745-14.462638-3.533257-23.84371-15.659445-28.02767-29.488407-4.522083-14.947929 0.788141-33.018016-18.392398-33.283163-3.870163 1.851159-6.950969 2.647815-9.343368 5.838085-8.917674 11.896313-0.857469 40.681718 3.795971 51.384872 7.295173 16.779628 20.18396 31.637552 37.076701 38.830559 28.701482 12.21984 56.714557-3.943139 69.485367-21.312657 9.215659-12.533637 14.387229-26.946408 17.516686-45.837476 2.405777-14.516154-1.88035-26.958571-13.136906-28.902167zM686.86279 701.290156c-5.496313-2.32672-16.278525-0.876929-23.355987-0.876929H325.132649c-3.827594 1.802509-6.98016 2.694033-9.342151 5.840517-7.987229 10.638693-3.074724 28.386469 9.050247 30.946712h337.205321c7.09084 0.001216 18.374154 1.7271 24.232915-0.583808 6.020525-2.374154 9.337286-8.460357 10.510985-15.765261 1.40114-8.725504-4.531813-17.277081-9.927176-19.561231z" p-id="8219"></path></svg>