<?xml version="1.0" standalone="no"?><!DOCTYPE svg PUBLIC "-//W3C//DTD SVG 1.1//EN" "http://www.w3.org/Graphics/SVG/1.1/DTD/svg11.dtd"><svg t="1529841702234" class="icon" style="" viewBox="0 0 1026 1024" version="1.1" xmlns="http://www.w3.org/2000/svg" p-id="5903" xmlns:xlink="http://www.w3.org/1999/xlink" width="200.390625" height="200"><defs><style type="text/css"></style></defs><path d="M982.002 378.016v169.616l35.706 35.713-74.456 77.478-75.365-75.192 51.611-46.928v-133.91c-219 90.294-289.204 118.359-337.767 140.27-48.568 21.91-83.545 21.803-131.72 3.647-48.171-18.15-277.483-101.838-391.345-156.335-75.983-36.36-80.874-59.414 1.304-90.27 107.245-40.742 284.51-105.995 378.473-141.604 55.622-22.503 85.029-34.784 136.084-9.125 91.162 37.645 299.467 115.809 403.042 158.574 90.168 39.353 29.551 52.291 4.433 68.066z m-389.707 234.19c52.958-21.856 124.366-57.987 202.228-91.341v267.814S693.821 895.805 516.798 895.805c-190.64 0-293.616-107.126-293.616-107.126V538.704c60.095 24.48 127.579 45.545 209.245 73.503 50.335 17.904 114.203 24.096 159.868 0z m0 0" p-id="5904"></path></svg>