<?xml version="1.0" standalone="no"?><!DOCTYPE svg PUBLIC "-//W3C//DTD SVG 1.1//EN" "http://www.w3.org/Graphics/SVG/1.1/DTD/svg11.dtd"><svg t="1529840443887" class="icon" style="" viewBox="0 0 1024 1024" version="1.1" xmlns="http://www.w3.org/2000/svg" p-id="2553" xmlns:xlink="http://www.w3.org/1999/xlink" width="200" height="200"><defs><style type="text/css"></style></defs><path d="M487.68 106.88l168.704 64.9728L656.384 435.2c0 0 119.3216-49.408 69.9392-139.904 65.8432-20.5824 144.0256 0 69.9392 139.904-74.0608 139.8784-329.1648 225.792-329.1648 225.792L467.0976 106.88 487.68 106.88z" p-id="2554"></path><path d="M425.9584 143.0528 425.9584 660.992c0 0-333.3632 129.4592-253.3376-117.4528 17.1008-48.8192 101.12-54.8608 101.12-54.8608s-78.1824 135.808 57.6 78.1568c4.1216-61.7216 0-345.6 0-345.6L425.9584 143.0528z" p-id="2555"></path><path d="M321.7152 735.5392l104.2176-20.5568 0 197.504c0 0-312.704 37.0432-320.9216-98.7392 4.1216-107.008 4.1216-107.008 4.1216-107.008s57.6 152.2432 209.8432 86.4512C318.976 747.904 321.7152 735.5392 321.7152 735.5392z" p-id="2556"></path><path d="M473.9584 701.2608l160.4864-79.488 0 56.192c0 0 257.8432-90.496 267.4432-307.2 21.9392 34.2784 85.0432 190.6688-101.4784 342.8608-186.5472 152.2432-326.4512 168.704-326.4512 168.704L473.9584 701.2608z" p-id="2557"></path></svg>